<?xml version="1.0" standalone="no"?>
<!DOCTYPE svg PUBLIC "-//W3C//DTD SVG 20010904//EN"
 "http://www.w3.org/TR/2001/REC-SVG-20010904/DTD/svg10.dtd">
<svg version="1.0" xmlns="http://www.w3.org/2000/svg"
 width="1536.000000pt" height="2048.000000pt" viewBox="0 0 1536.000000 2048.000000"
 preserveAspectRatio="xMidYMid meet">

<g transform="translate(0.000000,2048.000000) scale(0.100000,-0.100000)"
fill="#000000" stroke="none">
<path d="M12308 12190 c-20 -12 -50 -89 -74 -195 -25 -108 -25 -318 -1 -435
63 -296 244 -550 488 -684 131 -71 249 -103 421 -112 l116 -7 -69 -33 c-441
-212 -645 -704 -483 -1168 117 -335 441 -580 813 -615 472 -44 891 232 1028
676 25 81 27 102 27 258 1 194 -8 239 -79 392 -54 115 -90 168 -182 264 l-74
77 57 26 c192 88 378 270 489 479 100 187 136 331 143 567 5 181 -7 273 -54
422 -34 107 -52 116 -131 63 -153 -102 -301 -157 -529 -199 -221 -40 -357 -90
-483 -175 -57 -38 -155 -135 -182 -178 -11 -18 -24 -33 -27 -33 -4 0 -24 27
-45 59 -82 128 -214 235 -359 291 -42 16 -163 47 -270 68 -211 43 -297 73
-429 153 -90 54 -87 53 -111 39z m2438 -281 c16 -90 16 -318 0 -389 -3 -14
-11 -50 -17 -80 -42 -205 -170 -440 -318 -584 -27 -27 -48 -53 -45 -58 3 -4
-1 -6 -8 -3 -7 3 -24 -5 -38 -18 -33 -30 -85 -61 -137 -82 l-42 -17 -83 41
c-46 22 -123 52 -172 66 -50 14 -91 27 -93 29 -5 5 81 123 152 207 80 93 231
232 341 310 75 55 96 87 77 118 -23 37 -61 25 -159 -50 -181 -137 -366 -328
-484 -499 l-51 -75 -92 -5 -92 -5 7 159 c19 429 101 619 324 754 114 68 226
104 479 152 130 25 259 66 352 114 51 26 70 31 75 21 4 -7 15 -55 24 -106z
m-955 -1498 c74 -23 165 -79 223 -137 218 -218 217 -576 -2 -793 -113 -112
-234 -162 -397 -162 -165 0 -285 50 -400 166 -143 144 -195 334 -145 530 81
316 405 494 721 396z"/>
<path d="M880 10420 l0 -1450 205 0 205 0 2 438 3 438 365 -438 365 -437 268
-1 c212 0 267 3 260 12 -4 7 -196 225 -428 483 -231 259 -426 478 -434 488
-13 17 18 51 390 423 l404 404 -255 0 -254 0 -343 -342 -343 -343 0 888 0 887
-205 0 -205 0 0 -1450z"/>
<path d="M5610 10813 c-98 -16 -203 -70 -285 -145 l-55 -50 0 81 0 81 -205 0
-205 0 0 -905 0 -905 205 0 204 0 3 608 3 607 26 55 c49 105 113 159 221 186
102 26 209 3 296 -62 41 -32 94 -113 110 -170 9 -30 12 -206 12 -633 l0 -591
200 0 200 0 0 548 c0 558 5 651 39 727 60 136 214 215 363 185 78 -15 122 -37
171 -87 53 -52 85 -119 97 -200 5 -38 10 -313 10 -620 l0 -553 200 0 201 0 -3
638 c-4 626 -4 638 -26 710 -60 196 -179 344 -347 430 -135 69 -302 88 -449
53 -123 -30 -215 -80 -310 -172 l-79 -76 -76 76 c-143 143 -344 214 -521 184z"/>
<path d="M8650 10813 c-311 -49 -567 -241 -699 -525 -69 -146 -85 -228 -85
-418 0 -150 3 -173 28 -255 135 -447 516 -715 957 -674 177 17 343 86 455 191
34 32 64 58 68 58 3 0 6 -49 6 -110 l0 -110 200 0 200 0 0 905 0 905 -200 0
-200 0 0 -111 0 -110 -60 53 c-116 102 -224 155 -385 189 -82 17 -217 23 -285
12z m351 -402 c74 -23 165 -79 223 -137 218 -218 217 -576 -2 -793 -112 -111
-234 -161 -393 -162 -165 0 -289 50 -404 166 -142 142 -195 334 -145 529 28
109 63 169 150 257 83 84 164 130 273 155 81 18 212 11 298 -15z"/>
<path d="M11033 10806 c-325 -62 -591 -285 -702 -588 -48 -130 -56 -177 -55
-348 0 -150 3 -173 27 -253 107 -351 361 -590 702 -662 241 -51 531 8 709 143
100 76 90 88 83 -88 -3 -94 -11 -173 -20 -201 -66 -203 -228 -351 -432 -394
-251 -53 -528 63 -676 283 -18 26 -34 49 -35 51 -2 2 -66 -52 -143 -119 l-140
-123 32 -44 c45 -64 193 -204 260 -246 236 -151 500 -207 762 -162 320 56 570
240 705 518 91 189 84 92 87 1215 l4 992 -201 0 -200 0 0 -95 c0 -52 -2 -95
-5 -95 -3 0 -32 22 -66 49 -75 61 -179 112 -295 146 -110 33 -290 42 -401 21z
m378 -395 c265 -83 432 -369 375 -641 -45 -212 -202 -382 -402 -435 -78 -20
-216 -20 -295 0 -199 52 -362 222 -405 424 -55 260 80 525 322 632 117 52 277
60 405 20z"/>
<path d="M2812 10138 c4 -720 1 -687 80 -847 77 -159 229 -278 415 -326 203
-51 458 -33 627 44 171 78 295 227 348 417 22 77 22 94 26 717 l3 637 -206 0
-205 0 0 -582 c0 -471 -3 -592 -14 -629 -55 -182 -193 -271 -379 -247 -113 15
-203 83 -254 193 l-28 60 -3 603 -3 602 -205 0 -205 0 3 -642z"/>
</g>
</svg>
