<?xml version="1.0" standalone="no"?>
<!DOCTYPE svg PUBLIC "-//W3C//DTD SVG 20010904//EN"
 "http://www.w3.org/TR/2001/REC-SVG-20010904/DTD/svg10.dtd">
<svg version="1.0" xmlns="http://www.w3.org/2000/svg"
 width="1536.000000pt" height="2048.000000pt" viewBox="0 0 1536.000000 2048.000000"
 preserveAspectRatio="xMidYMid meet">

<g transform="translate(0.000000,2048.000000) scale(0.100000,-0.100000)"
fill="#000000" stroke="none">
<path d="M12308 12190 c-20 -12 -50 -89 -74 -195 -25 -108 -25 -318 -1 -435
63 -296 244 -550 488 -684 127 -69 247 -102 410 -112 90 -6 122 -3 205 15 168
38 148 13 156 194 15 341 68 521 192 650 119 124 283 197 561 247 159 29 272
63 382 115 l93 44 9 -37 c24 -90 33 -193 28 -317 -3 -71 -8 -141 -11 -155 -3
-14 -11 -50 -17 -80 -42 -205 -170 -440 -318 -584 -27 -27 -48 -53 -45 -58 3
-4 -1 -6 -8 -3 -7 3 -26 -7 -42 -22 -16 -15 -63 -43 -103 -63 l-73 -36 45 -33
c52 -37 58 -37 155 16 279 150 483 430 562 766 30 129 37 387 14 511 -28 144
-63 245 -91 258 -21 10 -32 6 -82 -27 -153 -102 -301 -157 -529 -199 -221 -40
-357 -90 -483 -175 -57 -38 -155 -135 -182 -178 -11 -18 -24 -33 -27 -33 -4 0
-24 27 -45 59 -82 128 -214 235 -359 291 -42 16 -163 47 -270 68 -211 43 -297
73 -429 153 -90 54 -87 53 -111 39z"/>
<path d="M14197 11395 c-183 -142 -359 -325 -477 -495 l-51 -75 28 -6 c77 -18
86 -14 140 64 110 157 270 318 445 446 79 57 100 89 81 120 -6 9 -23 17 -39
19 -23 2 -49 -13 -127 -73z"/>
</g>
</svg>
